<svg width="200" height="189" viewBox="0 0 200 189" fill="none" xmlns="http://www.w3.org/2000/svg">
<g clip-path="url(#clip0_8_3)">
<rect x="100" width="100" height="189" fill="white"/>
<rect width="100" height="189" fill="black"/>
<path d="M77.1 126.28C67.7267 126.28 59.4933 124.127 52.4 119.82C45.4333 115.387 40.05 109.307 36.25 101.58C32.45 93.7267 30.55 84.7333 30.55 74.6C30.55 65.1 32.45 56.4233 36.25 48.57C40.1767 40.7167 45.75 34.51 52.97 29.95C60.19 25.2633 68.6767 22.92 78.43 22.92C84.0033 22.92 88.88 23.4267 93.06 24.44C97.3667 25.4533 101.483 26.91 105.41 28.81L100.28 43.25C96.7333 41.4767 93.3133 40.21 90.02 39.45C86.8533 38.5633 83.3067 38.12 79.38 38.12C70.5133 38.12 63.04 41.35 56.96 47.81C51.0067 54.1433 48.03 62.9467 48.03 74.22C48.03 81.06 49.2967 87.2667 51.83 92.84C54.3633 98.4133 57.8467 102.847 62.28 106.14C66.84 109.433 72.16 111.08 78.24 111.08C83.0533 111.08 87.17 110.573 90.59 109.56C94.01 108.42 97.6833 106.837 101.61 104.81L110 111.08C106.073 113.233 98 122.233 93.06 123.5C88.2467 124.767 83.3067 126.28 77.1 126.28Z" fill="white"/>
<path d="M142.409 179C136.972 179 131.837 178.035 127.004 176.106C122.292 174.057 118.365 171.706 115.224 169.053V176.83H100V43H116.311V92.5532C118.728 89.7801 122.232 87.1277 126.823 84.5957C131.535 81.9433 137.093 80.617 143.497 80.617C150.746 80.617 157.512 82.5461 163.795 86.4043C170.199 90.1418 175.334 95.6277 179.2 102.862C183.067 109.975 185 118.656 185 128.904C185 136.379 183.792 143.191 181.375 149.34C178.959 155.489 175.697 160.794 171.588 165.255C167.601 169.596 163.07 172.972 157.996 175.383C152.921 177.794 147.726 179 142.409 179ZM138.06 164.532C143.98 164.532 149.176 163.085 153.646 160.191C158.237 157.298 161.802 153.199 164.339 147.894C166.997 142.589 168.326 136.44 168.326 129.447C168.326 122.213 166.997 116.004 164.339 110.819C161.802 105.635 158.358 101.656 154.009 98.883C149.78 96.1099 145.068 94.7234 139.872 94.7234C134.677 94.7234 129.964 96.0496 125.736 98.7021C121.628 101.234 118.486 104.007 116.311 107.021V157.298C119.09 159.468 122.353 161.216 126.098 162.543C129.844 163.869 133.831 164.532 138.06 164.532Z" fill="black"/>
</g>
<defs>
<clipPath id="clip0_8_3">
<rect width="200" height="189" rx="40" fill="white"/>
</clipPath>
</defs>
</svg>
